<?xml version="1.0" standalone="no"?><!DOCTYPE svg PUBLIC "-//W3C//DTD SVG 1.1//EN" "http://www.w3.org/Graphics/SVG/1.1/DTD/svg11.dtd"><svg class="icon" width="200px" height="200.00px" viewBox="0 0 1024 1024" version="1.1" xmlns="http://www.w3.org/2000/svg"><path d="M516.962747 601.642059m-405.90046 0a405.90046 405.90046 0 1 0 811.80092 0 405.90046 405.90046 0 1 0-811.80092 0Z" fill="#B1B1C2" /><path d="M647.442064 212.018092c123.132888 52.889349 209.364987 175.240703 209.364987 317.747431 0 103.586288-45.563488 196.50668-117.740298 259.864485a33.99677 33.99677 0 0 0-23.664055-9.559406 34.116057 34.116057 0 0 0-28.822187 15.881613 54.106899 54.106899 0 0 0-33.638909-11.702458c-30.039736 0-54.394833 24.350984-54.394833 54.390719 0 1.781077 0.090494 3.529247 0.259141 5.265078a45.386614 45.386614 0 0 0-24.548424-7.206575c-22.701534 0-41.466599 16.576768-44.99996 38.270532a353.582865 353.582865 0 0 1-18.135724 0.473035c-190.908422 0-355.499683-154.764487-355.499683-345.677023 0-107.407582 58.808448-203.367734 135.658014-266.770785-106.49442 73.164011-176.343078 195.799185-176.343078 334.764326C114.945281 821.927968 296.668611 1003.655411 520.837515 1003.655411c224.181244 0 405.904574-181.727443 405.904574-405.90046 0.008227-179.966933-117.123296-332.547235-279.300025-385.736859z m-116.876496 609.136568a33.026022 33.026022 0 1 0 0-66.052043 33.026022 33.026022 0 0 0 0 66.052043z m124.329871-87.416741a17.473476 17.473476 0 0 0 17.481703-17.485816c0-9.66224-7.819463-17.481703-17.481703-17.481703s-17.485816 7.819463-17.485816 17.481703a17.481703 17.481703 0 0 0 17.485816 17.485816z" fill="#A0A0B0" /><path d="M906.40984 601.642059c0 214.732898-174.710082 389.44298-389.451206 389.44298C302.221622 991.085039 127.519767 816.374957 127.519767 601.642059c0-214.741125 174.710082-389.451206 389.451207-389.451206 214.737011 0.004113 389.438866 174.710082 389.438866 389.451206zM516.962747 179.288231C284.077671 179.288231 94.613033 368.75287 94.613033 601.642059c0 232.876849 189.468752 422.349714 422.357941 422.349714 232.880962 0 422.353828-189.468752 422.353827-422.349714-0.008227-232.889189-189.472866-422.353828-422.362054-422.353828z" fill="#6E6E96" /><path d="M679.238196 267.700401l35.518707-35.514594c15.108305-15.108305 39.837716-15.108305 54.937794 0l78.297462 78.301576c15.112418 15.108305 15.112418 39.833602 0 54.937794l-35.514594 35.52282" fill="#B1B1C2" /><path d="M807.393475 286.329726a16.453367 16.453367 0 0 1-9.789754-29.690101c2.768279-2.093691 61.782395-48.545661-3.858314-145.780949a16.453367 16.453367 0 0 1 27.275569-18.415431c67.249026 99.616913 26.823102 168.317948-3.952921 190.727435a16.371101 16.371101 0 0 1-9.67458 3.159046z" fill="#6E6E96" /><path d="M763.26143 365.976364s-29.702441 32.651708 10.127048 72.477084c39.825376 39.825376 81.859616-7.844143 81.859616 58.249034 0.008227 0.004113 35.814867-115.78646-91.986664-130.726118z" fill="#A0A0B0" /><path d="M798.780137 330.461771c15.112418-15.108305 15.112418-39.833602 0-54.937794l-39.455175-39.459288 0.01234 0.008226 78.297462 78.293349c15.108305 15.112418 15.108305 39.841829 0 54.941907L802.107831 404.826878l-38.846401-38.850514 35.518707-35.514593z" fill="#A5A5B5" /><path d="M802.453351 279.184851s-23.923196-20.698336-44.625645 0L715.110651 321.897793l-40.792012-40.792011 59.244463-59.244463 68.890249 57.323532z" fill="#BEBED1" opacity=".59" /><path d="M812.477565 417.401364a16.457481 16.457481 0 0 1-11.636644-28.085898l35.514594-35.52282c4.203835-4.199722 6.515533-9.826774 6.515533-15.836366s-2.311698-11.636644-6.51142-15.836366l-78.297462-78.305689c-4.199722-4.199722-9.82266-6.51142-15.836366-6.51142s-11.636644 2.311698-15.840479 6.51142l-35.518707 35.514593a16.453367 16.453367 0 1 1-23.265062-23.269175l35.518707-35.514593c10.410868-10.414982 24.301624-16.14898 39.105541-16.14898s28.694673 5.733999 39.105541 16.14898l78.293349 78.301575c10.414982 10.410868 16.153093 24.301624 16.153093 39.101428s-5.738112 28.690559-16.153093 39.105541l-35.51048 35.518707a16.362874 16.362874 0 0 1-11.636645 4.829063z" fill="#6E6E96" /><path d="M336.489873 412.769741c14.396696 37.908558 67.643907 14.43783 118.933167-5.051184 51.293373-19.476674 111.771838-27.600524 97.371028-65.504969-14.404923-37.908558-98.23483-52.848216-149.52409-33.363315-51.272806 19.489014-81.180915 66.015023-66.780105 103.919468z" fill="#FFFFFF" opacity=".32" /><path d="M271.449336 550.383645a29.525568 45.06166 10.918 1 0 17.069711-88.492021 29.525568 45.06166 10.918 1 0-17.069711 88.492021Z" fill="#FFFFFF" opacity=".18" /><path d="M808.812578 109.353193m-100.217461 0a100.217461 100.217461 0 1 0 200.434922 0 100.217461 100.217461 0 1 0-200.434922 0Z" fill="#FFD67F" opacity=".6" /><path d="M810.688262 115.704193m-43.181863 0a43.181863 43.181863 0 1 0 86.363725 0 43.181863 43.181863 0 1 0-86.363725 0Z" fill="#FFB47F" /></svg>