<?xml version="1.0" standalone="no"?><!DOCTYPE svg PUBLIC "-//W3C//DTD SVG 1.1//EN" "http://www.w3.org/Graphics/SVG/1.1/DTD/svg11.dtd"><svg class="icon" width="200px" height="200.00px" viewBox="0 0 1024 1024" version="1.1" xmlns="http://www.w3.org/2000/svg"><path d="M854.016 140.288V583.68s-182.272 80.384-318.976 0-364.544 0-364.544 0V140.288s182.272-80.384 341.504 0c107.008 53.76 342.016 0 342.016 0z" fill="#EFB4BF" /><path d="M885.248 103.936c-7.168-5.632-16.896-7.68-26.112-5.632-64 14.848-248.32 45.056-329.728 2.56-131.584-69.12-274.944-36.352-340.992-14.848V38.4c0-16.896-13.824-30.72-30.72-30.72s-30.72 13.824-30.72 30.72V988.16c0 16.896 13.824 30.72 30.72 30.72s30.72-13.824 30.72-30.72v-362.496c50.176-15.872 226.816-64 334.336 2.048 52.224 32.256 110.08 43.008 163.328 43.008 101.376 0 187.392-38.912 193.024-41.472 10.752-5.12 17.92-16.384 17.92-28.16V128c0-9.216-4.608-18.432-11.776-24.064z m-49.664 477.184c-47.616 17.408-179.712 56.32-281.088-5.632-52.736-32.256-115.712-43.008-176.128-43.008-72.704 0-141.824 15.36-183.808 27.648V149.504c48.128-17.92 185.344-57.344 306.176 6.144 92.16 48.128 259.584 24.576 334.848 10.752v414.72z" fill="#C9062C" /></svg>