<?xml version="1.0" standalone="no"?><!DOCTYPE svg PUBLIC "-//W3C//DTD SVG 1.1//EN" "http://www.w3.org/Graphics/SVG/1.1/DTD/svg11.dtd"><svg class="icon" width="200px" height="200.00px" viewBox="0 0 1024 1024" version="1.1" xmlns="http://www.w3.org/2000/svg"><path d="M511.91 513.56m-448.31 0a448.31 448.31 0 1 0 896.62 0 448.31 448.31 0 1 0-896.62 0Z" fill="#E0995E" /><path d="M592.174 444.387a13.956 13.956 0 0 1-9.632-3.838c-5.616-5.322-5.862-14.188-0.54-19.804 3.892-4.111 95.968-101.016 149.174-128.071 6.895-3.502 15.337-0.752 18.839 6.143 3.502 6.895 0.752 15.33-6.143 18.839-48.904 24.866-140.603 121.381-141.527 122.352a13.967 13.967 0 0 1-10.171 4.379z" fill="#231F20" /><path d="M592.174 402.358s93.69-98.943 145.351-125.212M592.174 416.367a13.98 13.98 0 0 1-9.632-3.831c-5.616-5.322-5.862-14.188-0.54-19.811 3.892-4.118 95.968-101.009 149.174-128.071 6.916-3.475 15.33-0.766 18.839 6.143 3.502 6.895 0.752 15.323-6.143 18.839-48.904 24.859-140.603 121.381-141.527 122.352a13.936 13.936 0 0 1-10.171 4.379z" fill="#E0E0D1" /><path d="M458.207 583.608m-224.155 0a224.155 224.155 0 1 0 448.31 0 224.155 224.155 0 1 0-448.31 0Z" fill="#231F20" /><path d="M610.355 528.393c-15.639 17.153-37.712 22.492-49.303 11.925l-69.957-63.78c-11.591-10.567-8.31-33.039 7.329-50.193l56.632-62.117c15.639-17.153 37.712-22.492 49.303-11.925l69.957 63.78c11.591 10.567 8.31 33.039-7.329 50.193l-56.632 62.117z" fill="#231F20" /><path d="M458.207 555.589m-224.155 0a224.155 224.155 0 1 0 448.31 0 224.155 224.155 0 1 0-448.31 0Z" fill="#4F5D73" /><path d="M610.355 500.373c-15.639 17.153-37.712 22.492-49.303 11.925l-69.957-63.78c-11.591-10.567-8.31-33.039 7.329-50.193l56.632-62.117c15.639-17.153 37.712-22.492 49.303-11.925l69.957 63.78c11.591 10.567 8.31 33.039-7.329 50.193l-56.632 62.117z" fill="#4F5D73" /><path d="M724.391 303.414m-56.039 0a56.039 56.039 0 1 0 112.078 0 56.039 56.039 0 1 0-112.078 0Z" fill="#231F20" /><path d="M724.391 289.405m-56.039 0a56.039 56.039 0 1 0 112.078 0 56.039 56.039 0 1 0-112.078 0Z" fill="#C75C5C" /><path d="M724.391 289.405m-28.019 0a28.019 28.019 0 1 0 56.038 0 28.019 28.019 0 1 0-56.038 0Z" fill="#F5CF87" /></svg>